<?xml version="1.0" standalone="no"?>
<svg xmlns="http://www.w3.org/2000/svg" width="1200" height="1200" version="1.1" baseProfile="full">
	
<line x1="10.000000000000366" y1="1049.2304845413264" x2="10.0" y2="10.0" style="stroke:black;stroke-width:1" />
	
<line x1="910.0000000000002" y1="529.615242270663" x2="10.000000000000366" y2="1049.2304845413264" style="stroke:black;stroke-width:1" />
	
<line x1="10.0" y1="10.0" x2="910.0000000000002" y2="529.615242270663" style="stroke:black;stroke-width:1" />
	
<line x1="252.16527565534278" y1="366.28490750732084" x2="233.33372516750927" y2="385.3421492598126" style="stroke:black;stroke-width:1" />
	
<line x1="233.33372516750927" y1="385.3421492598126" x2="282.01332917648404" y2="488.1306863320242" style="stroke:black;stroke-width:1" />
	
<line x1="282.01332917648404" y1="488.1306863320242" x2="252.16527565534278" y2="366.28490750732084" style="stroke:black;stroke-width:1" />
	
<line x1="910.0000000000002" y1="529.615242270663" x2="282.01332917648404" y2="488.1306863320242" style="stroke:black;stroke-width:1" />
	
<line x1="282.01332917648404" y1="488.1306863320242" x2="10.000000000000366" y2="1049.2304845413264" style="stroke:black;stroke-width:1" />
	
<line x1="10.0" y1="10.0" x2="330.5089414855287" y2="334.7246704690528" style="stroke:black;stroke-width:1" />
	
<line x1="910.0000000000002" y1="529.615242270663" x2="330.5089414855287" y2="334.7246704690528" style="stroke:black;stroke-width:1" />
	
<line x1="282.01332917648404" y1="488.1306863320242" x2="330.5089414855287" y2="334.7246704690528" style="stroke:black;stroke-width:1" />
	
<line x1="330.5089414855287" y1="334.7246704690528" x2="252.16527565534278" y2="366.28490750732084" style="stroke:black;stroke-width:1" />
	
<line x1="233.33372516750927" y1="385.3421492598126" x2="182.5520159868345" y2="343.3184879594462" style="stroke:black;stroke-width:1" />
	
<line x1="182.5520159868345" y1="343.3184879594462" x2="282.01332917648404" y2="488.1306863320242" style="stroke:black;stroke-width:1" />
	
<line x1="10.0" y1="10.0" x2="182.5520159868345" y2="343.3184879594462" style="stroke:black;stroke-width:1" />
	
<line x1="182.5520159868345" y1="343.3184879594462" x2="198.36610259581636" y2="279.5925162352557" style="stroke:black;stroke-width:1" />
	
<line x1="10.0" y1="10.0" x2="198.36610259581636" y2="279.5925162352557" style="stroke:black;stroke-width:1" />
	
<line x1="330.5089414855287" y1="334.7246704690528" x2="198.36610259581636" y2="279.5925162352557" style="stroke:black;stroke-width:1" />
	
<line x1="198.36610259581636" y1="279.5925162352557" x2="252.16527565534278" y2="366.28490750732084" style="stroke:black;stroke-width:1" />
	
<line x1="182.5520159868345" y1="343.3184879594462" x2="216.60427985137574" y2="343.6345152404588" style="stroke:black;stroke-width:1" />
	
<line x1="198.36610259581636" y1="279.5925162352557" x2="216.60427985137574" y2="343.6345152404588" style="stroke:black;stroke-width:1" />
	
<line x1="252.16527565534278" y1="366.28490750732084" x2="216.60427985137574" y2="343.6345152404588" style="stroke:black;stroke-width:1" />
	
<line x1="233.33372516750927" y1="385.3421492598126" x2="216.60427985137574" y2="343.6345152404588" style="stroke:black;stroke-width:1" />
	
<line x1="137.01867004666252" y1="464.53486791356147" x2="182.5520159868345" y2="343.3184879594462" style="stroke:black;stroke-width:1" />
	
<line x1="282.01332917648404" y1="488.1306863320242" x2="137.01867004666252" y2="464.53486791356147" style="stroke:black;stroke-width:1" />
	
<line x1="10.000000000000366" y1="1049.2304845413264" x2="137.01867004666252" y2="464.53486791356147" style="stroke:black;stroke-width:1" />
	
<line x1="10.0" y1="10.0" x2="137.01867004666252" y2="464.53486791356147" style="stroke:black;stroke-width:1" />
	
<line x1="182.5520159868345" y1="343.3184879594462" x2="200.52800506999367" y2="431.9946807350106" style="stroke:black;stroke-width:1" />
	
<line x1="282.01332917648404" y1="488.1306863320242" x2="200.52800506999367" y2="431.9946807350106" style="stroke:black;stroke-width:1" />
	
<line x1="137.01867004666252" y1="464.53486791356147" x2="200.52800506999367" y2="431.9946807350106" style="stroke:black;stroke-width:1" />
</svg>