<?xml version="1.0" standalone="no"?>
<svg xmlns="http://www.w3.org/2000/svg" width="1200" height="1200" version="1.1" baseProfile="full">
	
<circle cx="833.6409440972448" cy="1066.863757553152" r="77.93692059742435" stroke="black" stroke-width="1" fill="none"/>
	
<circle cx="228.18519397054604" cy="966.4745678660123" r="77.93692059742357" stroke="black" stroke-width="1" fill="none"/>
	
<circle cx="136.5648638951131" cy="359.6299975202963" r="77.93691619819757" stroke="black" stroke-width="1" fill="none"/>
	
<circle cx="685.3961104770326" cy="84.96858038494997" r="77.93692059742506" stroke="black" stroke-width="1" fill="none"/>
	
<circle cx="1116.2128391316905" cy="522.0630794109852" r="77.93692059742533" stroke="black" stroke-width="1" fill="none"/>
	
<circle cx="685.3961104557392" cy="1115.0314196150903" r="77.93692060086842" stroke="black" stroke-width="1" fill="none"/>
	
<circle cx="465.2663794340931" cy="1014.6673910890435" r="163.99289714112268" stroke="black" stroke-width="1" fill="none"/>
	
<circle cx="136.56485543534626" cy="840.3699766069853" r="77.93692060086828" stroke="black" stroke-width="1" fill="none"/>
	
<circle cx="163.99289714112365" cy="599.9999717606543" r="163.99289714112265" stroke="black" stroke-width="1" fill="none"/>
	
<circle cx="228.18519397054746" cy="233.52543213398866" r="77.93692059742511" stroke="black" stroke-width="1" fill="none"/>
	
<circle cx="465.2663794340923" cy="185.33260891095694" r="163.99289714112294" stroke="black" stroke-width="1" fill="none"/>
	
<circle cx="833.6409440972443" cy="133.13624244684837" r="77.93692059742476" stroke="black" stroke-width="1" fill="none"/>
	
<circle cx="952.737152561283" cy="343.7214504755621" r="163.99289714112277" stroke="black" stroke-width="1" fill="none"/>
	
<circle cx="1116.2128391316908" cy="677.9369205890147" r="77.93692059742506" stroke="black" stroke-width="1" fill="none"/>
	
<circle cx="952.7371525612832" cy="856.2785495244375" r="163.99289714112274" stroke="black" stroke-width="1" fill="none"/>
	
<circle cx="600.0" cy="600.0" r="272.0142057177547" stroke="black" stroke-width="1" fill="none"/>
	
<circle cx="712.659251194823" cy="946.7295532777152" r="92.5588185118805" stroke="black" stroke-width="1" fill="none"/>
	
<circle cx="305.0542166041999" cy="814.2906317433872" r="92.5588185118805" stroke="black" stroke-width="1" fill="none"/>
	
<circle cx="305.05421660419944" cy="385.70936825661346" r="92.5588185118805" stroke="black" stroke-width="1" fill="none"/>
	
<circle cx="712.6592511948226" cy="253.2704467222847" r="92.5588185118805" stroke="black" stroke-width="1" fill="none"/>
	
<circle cx="964.5730242296352" cy="600.0" r="92.5588185118805" stroke="black" stroke-width="1" fill="none"/>
</svg>